<svg width="101" height="101" viewBox="0 0 101 101" fill="none" xmlns="http://www.w3.org/2000/svg">
<g clip-path="url(#clip0)">
<path d="M99.1166 0H35.4946C34.57 0 33.8203 0.749658 33.8203 1.67426V38.719L26.721 31.0074L25.0468 29.0487C24.7288 28.6767 24.2636 28.4625 23.7747 28.4625H7.03208C6.66011 28.4641 6.28896 28.4944 5.9219 28.5549C5.8753 28.5549 5.82625 28.568 5.77965 28.5761C2.86195 29.1149 0.656304 31.5233 0.37508 34.4761C0.372628 34.5194 0.372628 34.5628 0.37508 34.6053V34.6576C0.349737 34.8236 0.336657 34.9911 0.335022 35.1596V98.7816C0.335022 99.7062 1.08468 100.456 2.00929 100.456H8.70635C9.63095 100.456 10.3806 99.7062 10.3806 98.7816V60.2735H17.0777V98.7816C17.0777 99.7062 17.8273 100.456 18.7519 100.456H25.449C26.3736 100.456 27.1233 99.7062 27.1233 98.7816V60.2735H32.1461C34.9199 60.2735 37.1688 58.0245 37.1688 55.2507C37.1672 54.5428 37.0135 53.843 36.72 53.198C37.7051 53.0124 38.6118 52.5358 39.3238 51.8303L42.6004 48.5537H54.9162L37.2604 99.9114L40.425 101L58.4536 48.5537H67.3056V100.456H70.6541V48.5537H79.5062L97.5339 101L100.699 99.9114L83.0435 48.5537H99.1166C100.041 48.5537 100.791 47.804 100.791 46.8794V1.67426C100.791 0.749658 100.041 0 99.1166 0V0ZM8.70635 56.925H3.68355V46.4388C6.12464 50.8501 9.75848 54.4839 14.169 56.925H8.70635ZM7.03208 97.1073H3.68355V60.2735H7.03208V97.1073ZM23.7747 97.1073H20.4262V60.2735H23.7747V97.1073ZM32.1461 56.925H27.1233C26.6058 56.925 26.1055 56.9119 25.5561 56.8612C13.7332 56.0928 4.35146 46.6055 3.71707 34.7745C3.86422 33.4583 4.78883 32.3596 6.06088 31.9901C6.6454 32.2607 7.02227 32.8419 7.03208 33.4853C7.09094 43.8497 14.9816 52.4892 25.2978 53.4857C25.9011 53.5413 26.5036 53.5765 27.1233 53.5765H32.1461C33.0707 53.5765 33.8203 54.3261 33.8203 55.2507C33.8203 56.1753 33.0707 56.925 32.1461 56.925ZM27.1233 50.2279V46.2998L30.7358 50.2279H27.1233ZM36.9563 49.4627C36.6277 49.7816 36.1846 49.9549 35.7268 49.9434C35.2747 49.9353 34.8447 49.7431 34.5348 49.4129L26.681 40.874C26.2142 40.3663 25.4833 40.1971 24.8408 40.4472C24.1974 40.6982 23.7747 41.3171 23.7747 42.007V49.8764C16.0084 48.2463 10.4305 41.4209 10.3806 33.4853C10.3806 32.9155 10.2841 32.3489 10.0961 31.811H23.003L34.6574 44.5642C34.9656 44.8994 35.3981 45.0948 35.8543 45.1046C36.3072 45.0997 36.7421 44.9247 37.0716 44.6141L48.1382 33.5474C48.793 32.8926 49.8542 32.8926 50.509 33.5474C51.1638 34.2022 51.1638 35.2634 50.509 35.9182L36.9563 49.4627ZM97.4424 45.2051H45.9489L49.2975 41.8566H92.4196C93.3442 41.8566 94.0938 41.107 94.0938 40.1823V6.69706H90.7453V38.5081H52.6476L52.87 38.2857C53.8167 37.3423 54.348 36.0605 54.3464 34.7246C54.3423 33.9799 54.1706 33.2458 53.8445 32.5762L68.4943 17.9264L66.1268 15.5589L51.4671 30.2136C49.5525 29.2988 47.2692 29.6855 45.7625 31.1799L37.1688 39.7736V3.34853H97.4424V45.2051Z" fill="#FFA822"/>
<path d="M16.9673 23.4397C20.6731 23.4422 24.1238 21.5562 26.1234 18.4357C28.1231 15.3161 28.3953 11.392 26.8453 8.02633C28.7746 6.48123 29.9028 4.14642 29.9142 1.67426C29.9142 0.749658 29.1646 0 28.24 0H14.3169C9.77237 0.00572259 6.08948 3.6878 6.08457 8.23234C6.08621 8.67135 6.26034 9.09237 6.57017 9.40466C5.54501 12.7 6.15406 16.2865 8.20765 19.0595C10.2621 21.8325 13.5158 23.4593 16.9673 23.4397ZM23.89 9.59023C25.0974 12.4017 24.4843 15.6643 22.3383 17.8455C20.1932 20.0266 16.9411 20.6945 14.1101 19.5344C11.279 18.3736 9.43065 15.6169 9.4331 12.557C9.42983 11.6512 9.59333 10.7536 9.91462 9.90661H21.6819C22.152 9.90089 22.6204 9.85347 23.0815 9.76436C23.2736 9.73084 23.4616 9.68752 23.6505 9.64174C23.7298 9.62048 23.8115 9.6123 23.89 9.59023ZM14.3169 3.34853H26.2689C25.8536 4.47342 25.0386 5.40702 23.9807 5.97192C23.9505 5.98582 23.917 5.98582 23.8867 6.00054C23.5442 6.1763 23.1845 6.31364 22.8117 6.41093L22.7684 6.42074C22.4127 6.51066 22.0481 6.55645 21.6819 6.55808H9.72741C10.4337 4.63202 12.2658 3.35098 14.3169 3.34853Z" fill="#FFA822"/>
<path d="M65.1408 31.3207L70.6541 25.8074L73.656 28.8093C74.31 29.4624 75.3695 29.4624 76.0235 28.8093L88.5805 16.2523L86.213 13.8848L74.8397 25.258L71.8378 22.2561C71.1838 21.6029 70.1243 21.6029 69.4703 22.2561L62.7733 28.9531L65.1408 31.3207Z" fill="#FFA822"/>
</g>
<defs>
<clipPath id="clip0">
<rect width="101" height="101" fill="white"/>
</clipPath>
</defs>
</svg>
