<svg width="70" height="70" viewBox="0 0 70 70" fill="none" xmlns="http://www.w3.org/2000/svg">
<path d="M17.8208 16.2167C21.2916 16.625 23.7416 17.9083 26.25 20.4167L29.1666 23.3333L19.6875 32.8125C20.5916 33.1625 21.3208 33.6 21.9333 33.95C23.0125 34.6208 23.6541 35 25.2875 35C26.9208 35 27.5625 34.6208 28.6416 33.95C29.9833 33.1625 31.7916 32.0833 35.0292 32.0833C38.2667 32.0833 40.075 33.1625 41.3875 33.95C42.4666 34.5917 43.1375 35 44.7416 35C46.3458 35 47.0167 34.6208 48.0958 33.95C48.4458 33.7458 48.8541 33.5125 49.2916 33.2792L30.5666 14.5833C26.8916 10.9083 23.45 9.33333 18.375 8.89583C16.3333 8.72083 14.5833 10.3833 14.5833 12.425V12.6875C14.5833 14.525 16.0125 15.9833 17.8208 16.2167ZM62.2708 55.1542C61.775 54.9792 61.3375 54.7167 60.8125 54.3667C59.5 53.5792 57.6917 52.5 54.4542 52.5C51.2167 52.5 49.4083 53.5792 48.0958 54.3667C47.0167 55.0375 46.3458 55.4167 44.7416 55.4167C43.1375 55.4167 42.4666 55.0083 41.3875 54.3667C40.075 53.5792 38.2667 52.5 35.0292 52.5C31.7916 52.5 29.9833 53.5792 28.6416 54.3667C27.5625 55.0375 26.9208 55.4167 25.2875 55.4167C23.6541 55.4167 23.0125 55.0375 21.9333 54.3667C20.6208 53.5792 18.8125 52.5 15.575 52.5C12.3375 52.5 10.5291 53.5792 9.18748 54.3667C8.66248 54.6875 8.22498 54.95 7.72915 55.1542C6.62081 55.5333 5.83331 56.4667 5.83331 57.6333V57.9833C5.83331 59.9375 7.75831 61.2792 9.62498 60.6375C10.7041 60.2583 11.5208 59.7625 12.2208 59.3542C13.3 58.7125 13.9708 58.3333 15.575 58.3333C17.1791 58.3333 17.85 58.7125 18.9291 59.3833C20.2416 60.1708 22.05 61.25 25.2875 61.25C28.525 61.25 30.3333 60.1708 31.675 59.3833C32.7541 58.7125 33.3958 58.3333 35.0292 58.3333C36.6333 58.3333 37.3041 58.7417 38.3833 59.3833C39.6958 60.1708 41.5042 61.25 44.7416 61.25C47.9792 61.25 49.7583 60.1708 51.1 59.3833C52.1792 58.7125 52.8208 58.3333 54.4542 58.3333C56.0583 58.3333 56.7292 58.7417 57.8083 59.3833C58.4792 59.7917 59.2958 60.2875 60.375 60.6667C62.2125 61.3083 64.1667 59.9667 64.1667 58.0125V57.6625C64.1667 56.4667 63.3792 55.5333 62.2708 55.1542ZM9.07081 47.6875C10.4416 47.3083 11.4333 46.725 12.25 46.2583C13.3291 45.5875 14 45.2083 15.6041 45.2083C17.2083 45.2083 17.8791 45.6167 18.9583 46.2583C20.2708 47.0458 22.0791 48.125 25.3166 48.125C28.5541 48.125 30.3625 47.0458 31.675 46.2583C32.7541 45.5875 33.3958 45.2083 35.0292 45.2083C36.6333 45.2083 37.3041 45.6167 38.3833 46.2583C39.6958 47.0458 41.5042 48.125 44.7416 48.125C47.9792 48.125 49.7875 47.0458 51.1 46.2583C52.1792 45.5875 52.8208 45.2083 54.4542 45.2083C56.0583 45.2083 56.7292 45.6167 57.8083 46.2583C58.4792 46.6667 59.2667 47.1333 60.2875 47.5125C62.125 48.1833 64.1083 46.8125 64.1083 44.8583V44.5083C64.1083 43.3417 63.3208 42.4083 62.2417 42C61.7458 41.825 61.3083 41.5625 60.7542 41.2417C59.4417 40.4542 57.6333 39.375 54.3958 39.375C51.1583 39.375 49.35 40.4542 48.0375 41.2417C46.9583 41.9125 46.2875 42.2917 44.6833 42.2917C43.0792 42.2917 42.4083 41.8833 41.3292 41.2417C40.0167 40.4542 38.2083 39.375 34.9708 39.375C31.7333 39.375 29.925 40.4542 28.6125 41.2417C27.5333 41.9125 26.8916 42.2917 25.2583 42.2917C23.6541 42.2917 22.9833 41.8833 21.9041 41.2417C20.5916 40.4542 18.7833 39.375 15.5458 39.375C12.3083 39.375 10.5 40.4542 9.18748 41.2417C8.66248 41.5625 8.22498 41.825 7.72915 42.0292C6.62081 42.4083 5.83331 43.3417 5.83331 44.5083V45.1792C5.83331 46.8708 7.43748 48.1542 9.07081 47.6875Z" fill="white"/>
<path d="M48.125 23.3333C52.1521 23.3333 55.4166 20.0687 55.4166 16.0417C55.4166 12.0146 52.1521 8.75 48.125 8.75C44.0979 8.75 40.8333 12.0146 40.8333 16.0417C40.8333 20.0687 44.0979 23.3333 48.125 23.3333Z" fill="white"/>
</svg>
