<svg width="70" height="70" viewBox="0 0 70 70" fill="none" xmlns="http://www.w3.org/2000/svg">
<path d="M35 5.83334C18.9 5.83334 5.83331 18.9 5.83331 35C5.83331 51.1 18.9 64.1667 35 64.1667C51.1 64.1667 64.1667 51.1 64.1667 35C64.1667 18.9 51.1 5.83334 35 5.83334ZM45.5291 24.325C48.65 24.325 51.1583 26.8333 51.1583 29.9542C51.1583 33.075 48.65 35.5833 45.5291 35.5833C42.4083 35.5833 39.9 33.075 39.9 29.9542C39.8708 26.8333 42.4083 24.325 45.5291 24.325ZM28.0291 19.7167C31.8208 19.7167 34.9125 22.8083 34.9125 26.6C34.9125 30.3917 31.8208 33.4833 28.0291 33.4833C24.2375 33.4833 21.1458 30.3917 21.1458 26.6C21.1458 22.7792 24.2083 19.7167 28.0291 19.7167ZM28.0291 46.3458V57.2833C21.0291 55.0958 15.4875 49.7 13.0375 42.8167C16.1 39.55 23.7416 37.8875 28.0291 37.8875C29.575 37.8875 31.5291 38.1208 33.5708 38.5292C28.7875 41.0667 28.0291 44.4208 28.0291 46.3458ZM35 58.3333C34.2125 58.3333 33.4541 58.3042 32.6958 58.2167V46.3458C32.6958 42.2042 41.2708 40.1333 45.5291 40.1333C48.65 40.1333 54.0458 41.2708 56.7292 43.4875C53.3167 52.15 44.8875 58.3333 35 58.3333Z" fill="white"/>
</svg>
