<svg width="101" height="101" viewBox="0 0 101 101" fill="none" xmlns="http://www.w3.org/2000/svg">
<g clip-path="url(#clip0)">
<path d="M50.4998 0.000900269C44.5234 0.000900269 39.6786 4.84567 39.6786 10.8222C39.6786 16.7984 44.5234 21.6432 50.4998 21.6432C56.4763 21.6432 61.3211 16.7984 61.3211 10.8222C61.3211 4.84544 56.4763 0.000900269 50.4998 0.000900269ZM50.4998 18.0361C46.5219 18.0361 43.2857 14.8001 43.2857 10.8222C43.2857 6.84422 46.5219 3.60799 50.4998 3.60799C54.4778 3.60799 57.714 6.84422 57.714 10.8222C57.714 14.7999 54.4778 18.0361 50.4998 18.0361Z" fill="#FF6150"/>
<path d="M99.5759 92.6264C97.6166 91.1923 93.6416 88.7824 87.691 87.4867C85.3327 89.1663 82.4684 90.1778 79.3589 90.1778C76.2494 90.1778 73.3853 89.1663 71.0267 87.4867C65.0755 88.7824 61.0992 91.1926 59.1389 92.6264C58.2263 93.2939 57.7141 94.37 57.7144 95.5006L57.715 100.999H101V95.4997C101 94.3695 100.488 93.2939 99.5759 92.6264ZM97.393 97.3922H61.2867L61.2687 95.5378C62.7453 94.4574 65.7956 92.5673 70.3743 91.3538C73.1186 92.9492 76.1928 93.7849 79.3591 93.7849C82.5257 93.7849 85.5998 92.9492 88.3439 91.3538C92.9213 92.5671 95.9652 94.4536 97.3932 95.4997V97.3922H97.393Z" fill="#FF6150"/>
<path d="M79.3591 64.9285C73.3826 64.9285 68.5378 69.7732 68.5378 75.7497C68.5378 81.726 73.3826 86.5708 79.3591 86.5708C85.3356 86.5708 90.1804 81.726 90.1804 75.7497C90.1804 69.773 85.3354 64.9285 79.3591 64.9285ZM79.3591 82.9637C75.3812 82.9637 72.1449 79.7277 72.1449 75.7497C72.1449 71.7718 75.3812 68.5355 79.3591 68.5355C83.337 68.5355 86.5733 71.7718 86.5733 75.7497C86.5733 79.7274 83.3368 82.9637 79.3591 82.9637Z" fill="#FF6150"/>
<path d="M41.8616 92.6264C39.9023 91.1923 35.9273 88.7824 29.9767 87.4867C27.6183 89.1663 24.7541 90.1778 21.6446 90.1778C18.535 90.1778 15.671 89.1663 13.3124 87.4867C7.36116 88.7824 3.3848 91.1926 1.42457 92.6264C0.511981 93.2939 -0.000225369 94.37 7.43884e-08 95.5006L0.000676403 100.999H43.2857V95.4997C43.2857 94.3695 42.774 93.2939 41.8616 92.6264ZM39.6786 97.3922H3.57237L3.55433 95.5378C5.03121 94.4574 8.08123 92.5673 12.66 91.3538C15.4043 92.9492 18.4784 93.7849 21.6448 93.7849C24.8113 93.7849 27.8855 92.9492 30.6296 91.3538C35.207 92.5671 38.2509 94.4536 39.6789 95.4997V97.3922H39.6786Z" fill="#FF6150"/>
<path d="M21.6447 64.9285C15.6683 64.9285 10.8235 69.7732 10.8235 75.7497C10.8235 81.726 15.6683 86.5708 21.6447 86.5708C27.6212 86.5708 32.466 81.726 32.466 75.7497C32.466 69.773 27.621 64.9285 21.6447 64.9285ZM21.6447 82.9637C17.6668 82.9637 14.4306 79.7277 14.4306 75.7497C14.4306 71.7718 17.667 68.5355 21.6447 68.5355C25.6227 68.5355 28.8589 71.7718 28.8589 75.7497C28.8589 79.7274 25.6225 82.9637 21.6447 82.9637Z" fill="#FF6150"/>
<path d="M75.1077 51.1408L60.0375 36.0718H72.1408V30.5723C72.1408 29.4419 71.6291 28.3666 70.7167 27.699C68.7574 26.2652 64.7824 23.8552 58.8318 22.5594C56.4734 24.2389 53.6092 25.2505 50.4997 25.2505C47.3901 25.2505 44.5261 24.2389 42.1675 22.5594C36.2163 23.855 32.2399 26.2652 30.2797 27.699C29.3671 28.3666 28.8549 29.4426 28.8551 30.5732L28.8558 36.0718H40.9623L25.8919 51.1408L21.6432 46.8901V57.7143H32.4622L28.4416 53.6919L46.0632 36.0718H54.9364L72.5579 53.6919L68.5373 57.7143H79.3564V46.8901L75.1077 51.1408ZM32.4275 32.4647L32.4092 30.6102C33.8859 29.5299 36.9361 27.6398 41.5149 26.4262C44.2592 28.0214 47.3333 28.8574 50.4997 28.8574C53.6662 28.8574 56.7404 28.0214 59.4845 26.4262C64.0619 27.6395 67.1058 29.5263 68.5337 30.5721V32.4645H32.4275V32.4647Z" fill="#FF6150"/>
</g>
<defs>
<clipPath id="clip0">
<rect width="101" height="101" fill="white"/>
</clipPath>
</defs>
</svg>
