<svg width="101" height="101" viewBox="0 0 101 101" fill="none" xmlns="http://www.w3.org/2000/svg">
<g clip-path="url(#clip0)">
<path d="M64.004 28.2307C65.0118 28.2307 65.8287 27.4137 65.8287 26.406C65.8287 25.3982 65.0118 24.5813 64.004 24.5813C62.9963 24.5813 62.1793 25.3982 62.1793 26.406C62.1793 27.4137 62.9963 28.2307 64.004 28.2307Z" fill="#FF6150"/>
<path d="M75.5332 28.2307C76.541 28.2307 77.3579 27.4137 77.3579 26.406C77.3579 25.3982 76.541 24.5813 75.5332 24.5813C74.5254 24.5813 73.7085 25.3982 73.7085 26.406C73.7085 27.4137 74.5254 28.2307 75.5332 28.2307Z" fill="#FF6150"/>
<path d="M43.3844 68.236C43.8883 67.5025 44.3252 66.7267 44.6915 65.9187H96.7197C99.0652 65.9187 100.973 64.0105 100.973 61.665C100.973 56.1302 98.9398 50.8148 95.2472 46.6983C94.6997 46.0878 93.7611 46.0369 93.1512 46.5845C92.5409 47.1319 92.49 48.0703 93.0374 48.6804C96.2406 52.2515 98.0047 56.8628 98.0047 61.6648C98.0047 62.3734 97.4281 62.9498 96.7197 62.9498H45.6798C45.6988 62.8636 45.7195 62.7778 45.737 62.6912C48.0959 61.7755 49.8305 58.7676 50.0256 56.1171C50.1818 53.9965 49.3452 52.7058 48.6159 51.9965C47.9442 51.3429 47.0656 50.8859 46.0373 50.6483V50.5718V50.3207C49.1497 45.9879 53.8192 43.1599 59.0497 42.4115V42.8214C59.0497 47.0567 62.4953 50.5024 66.7308 50.5024H72.809C77.0443 50.5024 80.4901 47.0567 80.4901 42.8214V42.3083C83.1565 42.5751 85.761 43.3933 88.0878 44.7045C88.3182 44.8343 88.5683 44.8961 88.8151 44.8961C89.3335 44.8961 89.8369 44.6241 90.1096 44.1402C90.512 43.4261 90.2595 42.5208 89.5452 42.1184C87.2824 40.8431 84.7919 39.9733 82.2239 39.5468C83.3514 37.8908 84.1435 36.0215 84.5406 34.0528C86.8995 33.1371 88.634 30.1292 88.8291 27.4787C88.9853 25.3581 88.1487 24.0674 87.4195 23.358C86.7478 22.7045 85.8691 22.2474 84.8408 22.0099V20.4186V15.8037C84.8408 9.11624 79.4 3.67546 72.7123 3.67546H66.8273C60.1398 3.67546 54.699 9.11624 54.699 15.8037V20.4194V21.9695C51.9256 22.5266 50.3102 24.6089 50.5215 27.4793C50.728 30.284 52.5435 33.3375 55.0156 34.1337C55.4293 36.1264 56.2491 38.0149 57.4106 39.6816C53.0868 40.544 49.1481 42.6538 46.0373 45.7546V41.31C46.0373 38.0393 44.4296 34.9786 41.7367 33.1225C39.0438 31.2662 35.6108 30.8529 32.5546 32.0164L19.682 36.9173C17.417 37.7797 15.8953 39.9873 15.8953 42.4109V49.0572V50.572V50.6073C13.1219 51.1644 11.5065 53.2467 11.718 56.1171C11.9245 58.9219 13.7399 61.9753 16.2119 62.7715C16.6133 64.7055 17.3965 66.5418 18.5039 68.172C7.9283 70.0269 0 79.2386 0 90.2536C0 92.5991 1.90835 94.5074 4.25384 94.5074H12.3916C13.2115 94.5074 13.8759 93.8428 13.8759 93.0232C13.8759 92.2033 13.2113 91.5387 12.3916 91.5387H4.25384C3.54526 91.5387 2.96865 90.9621 2.96865 90.2536C2.96865 80.2761 10.4659 72.0051 20.246 70.9219V71.4601C20.246 75.6954 23.6918 79.141 27.9271 79.141H34.0052C38.2405 79.141 41.6864 75.6954 41.6864 71.4601V70.9681C51.2595 72.2251 58.5857 80.4625 58.5857 90.2538C58.5857 90.9623 58.0093 91.5389 57.3007 91.5389H19.3468C18.527 91.5389 17.8626 92.2035 17.8626 93.0234C17.8626 93.8432 18.5272 94.5076 19.3468 94.5076H57.3005C59.646 94.5076 61.5542 92.5992 61.5542 90.2538C61.5542 79.4193 53.7709 70.2352 43.3844 68.236ZM66.8271 6.64411H72.7121C77.2409 6.64411 81.0103 9.94851 81.7414 14.2726C80.4676 13.3263 78.8915 12.7655 77.1863 12.7655H62.3525C60.6475 12.7655 59.0712 13.3263 57.7976 14.2726C58.5291 9.94851 62.2985 6.64411 66.8271 6.64411ZM56.3028 31.3635C56.2903 31.3635 56.2783 31.3639 56.2659 31.3637C55.201 31.3637 53.6353 29.3464 53.4819 27.2613C53.4404 26.6997 53.3148 24.991 55.8461 24.8046C55.9242 24.7987 56.0012 24.7989 56.0807 24.8042C56.4898 24.8328 56.8948 24.6894 57.1956 24.4085C57.4964 24.1278 57.6673 23.7348 57.6673 23.3233V22.3624V20.4194C57.6673 17.8358 59.7691 15.7339 62.3527 15.7339H77.1865C79.7701 15.7339 81.8719 17.8358 81.8719 20.4194V22.3624V23.3164C81.8719 23.7113 82.0294 24.0899 82.3091 24.3684C82.5888 24.647 82.9622 24.8081 83.3631 24.8008C83.4084 24.801 83.4556 24.801 83.5037 24.8046H83.5039C84.3137 24.8642 84.9519 25.1001 85.3493 25.4867C85.7573 25.8834 85.9269 26.464 85.8682 27.2613C85.7186 29.293 84.2058 31.2936 83.1425 31.3617C82.4344 31.4071 81.8573 31.9476 81.7656 32.6512C81.4032 35.4309 80.0644 38.02 77.9953 39.9414C77.6929 40.2223 77.5211 40.6162 77.5211 41.0291V42.822C77.5211 45.4204 75.407 47.5343 72.8086 47.5343H66.7304C64.132 47.5343 62.018 45.4204 62.018 42.822V41.0291C62.018 40.6164 61.8461 40.2223 61.5437 39.9414C59.476 38.021 58.1371 35.4334 57.774 32.6554C57.6775 31.9152 57.0469 31.3635 56.3028 31.3635ZM20.7381 39.6918L33.6105 34.791C35.7868 33.9626 38.1346 34.2453 40.0516 35.5668C41.9689 36.8883 43.0684 38.9817 43.0684 41.3102V43.0116C41.7726 42.005 40.1471 41.4035 38.383 41.4035H23.5492C21.785 41.4035 20.1598 42.005 18.8637 43.0116V42.4113C18.8639 41.2116 19.6171 40.1187 20.7381 39.6918ZM39.1919 68.5794C38.8895 68.8603 38.7177 69.2542 38.7177 69.6671V71.4601C38.7177 74.0584 36.6036 76.1723 34.0052 76.1723H27.9271C25.3287 76.1723 23.2146 74.0584 23.2146 71.4601V69.6671C23.2146 69.2544 23.0428 68.8603 22.7404 68.5794C20.6726 66.659 19.3338 64.0715 18.9706 61.2934C18.874 60.5533 18.2431 60.0013 17.4992 60.0013C17.487 60.0013 17.475 60.0017 17.4623 60.0015C16.3975 60.0015 14.8318 57.9843 14.6783 55.8992C14.6369 55.3376 14.5113 53.6288 17.0426 53.4424C17.1209 53.4365 17.1976 53.4365 17.2771 53.442C17.6866 53.471 18.0912 53.3272 18.3921 53.0463C18.6929 52.7656 18.8637 52.3727 18.8637 51.9612V50.572V49.0572C18.8637 46.4736 20.9656 44.3717 23.5492 44.3717H38.383C40.9665 44.3717 43.0684 46.4736 43.0684 49.0572V50.572V51.9544C43.0684 52.3494 43.2258 52.7279 43.5056 53.0065C43.7837 53.2834 44.1603 53.4389 44.5526 53.4389H44.5595C44.6053 53.4389 44.6521 53.4391 44.7002 53.4426H44.7004C45.5102 53.5022 46.1483 53.7381 46.5458 54.1248C46.9538 54.5215 47.1234 55.102 47.0646 55.8994C46.9151 57.931 45.4023 59.9317 44.339 59.9997C43.6308 60.0451 43.0538 60.5856 42.9621 61.2893C42.5999 64.0689 41.2609 66.658 39.1919 68.5794Z" fill="#FF6150"/>
<path d="M25.2003 56.8687C26.2081 56.8687 27.025 56.0518 27.025 55.044C27.025 54.0363 26.2081 53.2193 25.2003 53.2193C24.1926 53.2193 23.3756 54.0363 23.3756 55.044C23.3756 56.0518 24.1926 56.8687 25.2003 56.8687Z" fill="#FF6150"/>
<path d="M36.7296 56.8687C37.7374 56.8687 38.5543 56.0518 38.5543 55.044C38.5543 54.0363 37.7374 53.2193 36.7296 53.2193C35.7219 53.2193 34.9049 54.0363 34.9049 55.044C34.9049 56.0518 35.7219 56.8687 36.7296 56.8687Z" fill="#FF6150"/>
<path d="M32.6587 61.5135H28.8734C28.0536 61.5135 27.3892 62.1781 27.3892 62.998C27.3892 63.8178 28.0537 64.4822 28.8734 64.4822H32.6587C33.4786 64.4822 34.1431 63.8176 34.1431 62.998C34.1429 62.1781 33.4784 61.5135 32.6587 61.5135Z" fill="#FF6150"/>
<path d="M65.1409 31.7073C64.4016 32.0616 64.0895 32.9481 64.444 33.6873C65.3985 35.6792 67.4422 36.9664 69.6502 36.9664C71.8582 36.9664 73.9017 35.6792 74.8565 33.6873C75.2107 32.9479 74.8987 32.0616 74.1595 31.7073C73.4202 31.3528 72.5338 31.6649 72.1796 32.4042C71.7156 33.3722 70.7229 33.9977 69.6504 33.9977C68.5779 33.9977 67.5852 33.3722 67.1213 32.4042C66.7666 31.6651 65.8805 31.353 65.1409 31.7073Z" fill="#FF6150"/>
<path d="M14.2913 30.6995L18.2842 30.9131C18.327 30.9155 18.3694 30.9164 18.4116 30.9164C19.6049 30.9164 20.6086 30.0134 20.7244 28.8093C21.1822 24.0429 23.5985 19.6165 27.3541 16.6648C30.5847 14.1262 34.6756 12.8025 38.774 12.9254L38.602 13.905C38.4118 14.9874 38.885 16.0726 39.8074 16.6699C40.7299 17.267 41.9137 17.2546 42.8234 16.6384L49.0825 12.3977C49.6999 11.9793 50.1112 11.3441 50.2402 10.6095C50.3692 9.87491 50.1992 9.13773 49.7613 8.5337L45.3228 2.41373C44.6777 1.52426 43.5689 1.10882 42.4981 1.356C41.4274 1.60297 40.6127 2.46206 40.4225 3.54426L40.2819 4.34457C38.715 4.22088 37.1371 4.23765 35.5743 4.39546C34.7586 4.47772 34.1643 5.20563 34.2465 6.02133C34.3288 6.83702 35.0575 7.43099 35.8724 7.34912C37.6784 7.16705 39.5066 7.19683 41.3069 7.43809C42.0971 7.54441 42.8282 7.00825 42.9659 6.22392L43.2493 4.61147L47.214 10.0783L41.6231 13.866L41.9811 11.8276C42.0517 11.4266 41.9541 11.0141 41.7117 10.6869C41.469 10.3596 41.1027 10.1465 40.6985 10.0972C35.31 9.44152 29.7777 10.9847 25.5199 14.3307C21.2897 17.6553 18.513 22.5794 17.8372 27.9162L15.1206 27.7708C15.8426 21.6521 18.9963 16.0057 23.8427 12.1969C25.6282 10.7938 27.606 9.66226 29.7215 8.83355C30.4847 8.53469 30.8612 7.67343 30.5622 6.91021C30.2631 6.14679 29.4021 5.77021 28.6387 6.06946C26.2527 7.00391 24.022 8.28022 22.0084 9.86288C16.347 14.3122 12.7339 20.9841 12.0954 28.1683C12.0399 28.7937 12.2441 29.4245 12.6556 29.8991C13.0675 30.374 13.6636 30.6657 14.2913 30.6995Z" fill="#FF6150"/>
<path d="M100.43 70.5189C100.017 70.0427 99.4189 69.7502 98.7899 69.7166L94.7698 69.5016C93.5175 69.4336 92.444 70.3609 92.3239 71.6106C91.8627 76.4118 89.4286 80.8706 85.6455 83.844C82.5237 86.2974 78.7147 87.6118 74.7738 87.622L74.8799 87.0178C75.0706 85.9321 74.596 84.8436 73.6709 84.2445C72.7455 83.6454 71.5579 83.6576 70.6456 84.2762L64.3443 88.5454C63.7249 88.9652 63.3124 89.6022 63.183 90.3392C63.0534 91.0762 63.2241 91.8157 63.6634 92.4215L68.1318 98.5831C68.655 99.3043 69.4817 99.7146 70.3465 99.7146C70.5517 99.7146 70.7592 99.6915 70.9652 99.644C72.0391 99.3962 72.8563 98.5346 73.0471 97.4488L73.2538 96.2719C73.7415 96.2992 74.2275 96.313 74.7083 96.313C80.5988 96.313 86.3901 94.3113 91.0148 90.6765C96.7125 86.1988 100.349 79.484 100.991 72.2545C101.047 71.6275 100.842 70.9949 100.43 70.5189ZM89.1805 88.3421C85.0762 91.5676 79.9366 93.3439 74.7083 93.3439C73.878 93.3439 73.0293 93.2976 72.1856 93.2064C71.4084 93.1236 70.6994 93.6554 70.5641 94.4253L70.2167 96.4015L66.2053 90.87L71.8621 87.0373L71.557 88.7741C71.485 89.1836 71.5881 89.6046 71.8412 89.9344C72.0943 90.2642 72.4742 90.4729 72.8885 90.5094C78.1513 90.9724 83.3349 89.4351 87.4796 86.1777C91.7386 82.8305 94.5337 77.8716 95.2117 72.4979L97.9665 72.6452C97.2419 78.8124 94.0646 84.5037 89.1805 88.3421Z" fill="#FF6150"/>
</g>
<defs>
<clipPath id="clip0">
<rect width="101" height="101" fill="white"/>
</clipPath>
</defs>
</svg>
