<svg width="150" height="138" viewBox="0 0 150 138" fill="none" xmlns="http://www.w3.org/2000/svg">
<g filter="url(#filter0_d)">
<path d="M36.3566 28.4444V9.44367C36.3566 6.59587 38.8399 4.28741 41.9034 4.28741H108.096C111.16 4.28741 113.643 6.59587 113.643 9.44367V28.4444C113.643 31.2922 111.16 33.6007 108.096 33.6007H41.9034C38.8399 33.6007 36.3566 31.2922 36.3566 28.4444Z" fill="#FC5D3D"/>
<path d="M42.4581 9.9588H107.541V27.9283H42.4581V9.9588Z" fill="white"/>
<path d="M94.0441 67.9455H55.9559C54.4244 67.9455 53.1825 66.791 53.1825 65.3673V58.2445C53.1825 56.8209 54.4244 55.6664 55.9559 55.6664H94.0447C95.5762 55.6664 96.8181 56.8209 96.8181 58.2445V65.3673C96.8176 66.7915 95.5762 67.9455 94.0441 67.9455Z" fill="#72C1E8"/>
<path d="M88.9537 87.8682H71.1072C69.5757 87.8682 68.3337 86.7137 68.3337 85.2901V80.4711C68.3337 79.0474 69.5757 77.8929 71.1072 77.8929H88.9537C90.4852 77.8929 91.7271 79.0474 91.7271 80.4711V85.2901C91.7271 86.7137 90.4852 87.8682 88.9537 87.8682Z" fill="#F0C020"/>
<path d="M73.1973 85.0673C72.4312 85.0673 71.8105 84.4904 71.8105 83.7783V81.9824C71.8105 81.2703 72.4312 80.6933 73.1973 80.6933C73.9633 80.6933 74.584 81.2703 74.584 81.9824V83.7783C74.584 84.4904 73.9633 85.0673 73.1973 85.0673Z" fill="#F9E5AF"/>
<path d="M88.9537 107.79H71.1072C69.5757 107.79 68.3337 106.636 68.3337 105.212V100.393C68.3337 98.9695 69.5757 97.8151 71.1072 97.8151H88.9537C90.4852 97.8151 91.7271 98.9695 91.7271 100.393V105.212C91.7271 106.636 90.4852 107.79 88.9537 107.79Z" fill="#F0C020"/>
<path d="M73.1973 105.059C72.4312 105.059 71.8105 104.482 71.8105 103.77V101.836C71.8105 101.124 72.4312 100.547 73.1973 100.547C73.9633 100.547 74.584 101.124 74.584 101.836V103.77C74.584 104.482 73.9633 105.059 73.1973 105.059Z" fill="#F9E5AF"/>
<path d="M88.9537 127.713H71.1072C69.5757 127.713 68.3337 126.558 68.3337 125.134V120.315C68.3337 118.892 69.5757 117.737 71.1072 117.737H88.9537C90.4852 117.737 91.7271 118.892 91.7271 120.315V125.134C91.7271 126.559 90.4852 127.713 88.9537 127.713Z" fill="#F0C020"/>
<path d="M85.9551 125.125H73.1973C72.4312 125.125 71.8105 124.548 71.8105 123.836V121.172C71.8105 120.46 72.4312 119.883 73.1973 119.883C73.9633 119.883 74.584 120.46 74.584 121.172V122.547H85.9551C86.7211 122.547 87.3418 123.124 87.3418 123.836C87.3418 124.548 86.7211 125.125 85.9551 125.125Z" fill="#F9E5AF"/>
<path d="M36.1719 67.9455H8.4375C6.90601 67.9455 5.66406 66.791 5.66406 65.3673V58.2445C5.66406 56.8209 6.90601 55.6664 8.4375 55.6664H36.1719C37.7034 55.6664 38.9453 56.8209 38.9453 58.2445V65.3673C38.9453 66.7915 37.7034 67.9455 36.1719 67.9455Z" fill="#72C1E8"/>
<path d="M141.562 67.9455H113.828C112.297 67.9455 111.055 66.791 111.055 65.3673V58.2445C111.055 56.8209 112.297 55.6664 113.828 55.6664H141.562C143.094 55.6664 144.336 56.8209 144.336 58.2445V65.3673C144.336 66.7915 143.094 67.9455 141.562 67.9455Z" fill="#72C1E8"/>
<path d="M32.289 87.8682H19.9933C18.4618 87.8682 17.2198 86.7137 17.2198 85.2901V80.4711C17.2198 79.0474 18.4618 77.8929 19.9933 77.8929H32.289C33.8205 77.8929 35.0625 79.0474 35.0625 80.4711V85.2901C35.0625 86.7137 33.8205 87.8682 32.289 87.8682Z" fill="#F0C020"/>
<path d="M32.289 107.79H19.9933C18.4618 107.79 17.2198 106.636 17.2198 105.212V100.393C17.2198 98.9695 18.4618 97.8151 19.9933 97.8151H32.289C33.8205 97.8151 35.0625 98.9695 35.0625 100.393V105.212C35.0625 106.636 33.8205 107.79 32.289 107.79Z" fill="#F0C020"/>
<path d="M137.68 87.8682H125.384C123.852 87.8682 122.61 86.7137 122.61 85.2901V80.4711C122.61 79.0474 123.852 77.8929 125.384 77.8929H137.68C139.211 77.8929 140.453 79.0474 140.453 80.4711V85.2901C140.453 86.7137 139.211 87.8682 137.68 87.8682Z" fill="#F0C020"/>
<path d="M137.68 107.79H125.384C123.852 107.79 122.61 106.636 122.61 105.212V100.393C122.61 98.9695 123.852 97.8151 125.384 97.8151H137.68C139.211 97.8151 140.453 98.9695 140.453 100.393V105.212C140.453 106.636 139.211 107.79 137.68 107.79Z" fill="#F0C020"/>
<path d="M58.082 20.2331H91.918C92.684 20.2331 93.3047 19.6561 93.3047 18.944C93.3047 18.232 92.684 17.655 91.918 17.655H58.082C57.316 17.655 56.6953 18.232 56.6953 18.944C56.6953 19.6561 57.316 20.2331 58.082 20.2331Z" fill="black"/>
<path d="M61.9166 61.8059C61.9166 62.518 62.5373 63.095 63.3033 63.095H86.6967C87.4628 63.095 88.0835 62.518 88.0835 61.8059C88.0835 61.0938 87.4628 60.5168 86.6967 60.5168H63.3033C62.5373 60.5168 61.9166 61.0938 61.9166 61.8059Z" fill="black"/>
<path d="M136.616 60.5168H118.774C118.008 60.5168 117.388 61.0938 117.388 61.8059C117.388 62.518 118.008 63.095 118.774 63.095H136.616C137.382 63.095 138.003 62.518 138.003 61.8059C138.003 61.0938 137.382 60.5168 136.616 60.5168Z" fill="black"/>
<path d="M32.6125 61.8059C32.6125 61.0938 31.9918 60.5168 31.2257 60.5168H13.3837C12.6176 60.5168 11.9969 61.0938 11.9969 61.8059C11.9969 62.518 12.6176 63.095 13.3837 63.095H31.2263C31.9918 63.095 32.6125 62.518 32.6125 61.8059Z" fill="black"/>
<path d="M23.3647 121.437H22.9581C22.1921 121.437 21.5714 122.014 21.5714 122.726C21.5714 123.438 22.1921 124.015 22.9581 124.015H23.3647C24.1307 124.015 24.7514 123.438 24.7514 122.726C24.7514 122.014 24.1307 121.437 23.3647 121.437Z" fill="black"/>
<path d="M28.6325 121.437H28.2259C27.4599 121.437 26.8392 122.014 26.8392 122.726C26.8392 123.438 27.4599 124.015 28.2259 124.015H28.6325C29.3986 124.015 30.0193 123.438 30.0193 122.726C30.0193 122.014 29.3986 121.437 28.6325 121.437Z" fill="black"/>
<path d="M33.901 121.437H33.4944C32.7284 121.437 32.1077 122.014 32.1077 122.726C32.1077 123.438 32.7284 124.015 33.4944 124.015H33.901C34.667 124.015 35.2877 123.438 35.2877 122.726C35.2877 122.014 34.667 121.437 33.901 121.437Z" fill="black"/>
<path d="M128.755 121.437H128.348C127.582 121.437 126.961 122.014 126.961 122.726C126.961 123.438 127.582 124.015 128.348 124.015H128.755C129.521 124.015 130.141 123.438 130.141 122.726C130.141 122.014 129.521 121.437 128.755 121.437Z" fill="black"/>
<path d="M134.023 121.437H133.617C132.851 121.437 132.23 122.014 132.23 122.726C132.23 123.438 132.851 124.015 133.617 124.015H134.023C134.789 124.015 135.41 123.438 135.41 122.726C135.41 122.014 134.789 121.437 134.023 121.437Z" fill="black"/>
<path d="M139.292 121.437H138.885C138.119 121.437 137.498 122.014 137.498 122.726C137.498 123.438 138.119 124.015 138.885 124.015H139.292C140.058 124.015 140.678 123.438 140.678 122.726C140.678 122.014 140.058 121.437 139.292 121.437Z" fill="black"/>
<path d="M90.1652 33.6033C90.1652 34.3097 90.7864 34.8872 91.5519 34.8872C92.3173 34.8872 92.9386 34.3097 92.9386 33.6033C92.9386 32.8917 92.3173 32.3091 91.5519 32.3091C90.7864 32.3091 90.1652 32.8917 90.1652 33.6033Z" fill="black"/>
<path d="M108.929 27.9288V9.95929C108.929 9.24721 108.308 8.67023 107.542 8.67023H42.4581C41.6921 8.67023 41.0714 9.24721 41.0714 9.95929V27.9288C41.0714 28.6409 41.6921 29.2179 42.4581 29.2179H107.541C108.308 29.2179 108.929 28.6404 108.929 27.9288ZM106.155 26.6398H43.8448V11.2484H106.155V26.6398H106.155Z" fill="black"/>
<path d="M25.0781 69.233C25.844 69.233 26.4648 68.6558 26.4648 67.9439C26.4648 67.232 25.844 66.6548 25.0781 66.6548C24.3123 66.6548 23.6914 67.232 23.6914 67.9439C23.6914 68.6558 24.3123 69.233 25.0781 69.233Z" fill="black"/>
<path d="M141.562 54.3773H129.637V44.6335C129.637 43.9215 129.016 43.3445 128.25 43.3445H76.3867V34.8872H86.005C86.7705 34.8872 87.3917 34.3097 87.3917 33.6033C87.3917 32.8917 86.776 32.3142 86.0161 32.3142C86.0105 32.3091 86.0105 32.3091 86.005 32.3091H41.9018C39.6165 32.3091 37.7472 30.5714 37.7416 28.447V9.4411C37.7472 7.31673 39.6165 5.57907 41.9018 5.57391H108.098C110.389 5.57907 112.253 7.31673 112.258 9.4411V28.447C112.253 30.5714 110.389 32.3091 108.098 32.3091H97.0987C96.3333 32.3091 95.712 32.8917 95.712 33.6033C95.712 34.3097 96.3333 34.8872 97.0987 34.8872H108.098C111.92 34.8872 115.026 31.9997 115.032 28.447V9.4411C115.026 5.88844 111.92 3.00094 108.098 2.99579H41.9018C38.08 3.00094 34.9682 5.88844 34.9682 9.4411V28.447C34.9682 31.9997 38.08 34.8872 41.9018 34.8872H73.6133V43.3445H21.75C20.984 43.3445 20.3633 43.9215 20.3633 44.6335V54.3778H8.4375C6.14664 54.3778 4.27734 56.1155 4.27734 58.245V65.3658C4.27734 67.4128 5.99798 69.086 8.16016 69.2201V122.726C8.16016 123.438 8.78085 124.015 9.54688 124.015H17.2199C17.9859 124.015 18.6066 123.438 18.6066 122.726C18.6066 122.014 17.9859 121.437 17.2199 121.437H10.9336V104.092H15.8331V105.212C15.8331 107.345 17.6991 109.079 19.9933 109.079H32.2891C34.5833 109.079 36.4492 107.345 36.4492 105.212V100.393C36.4492 98.2606 34.5833 96.526 32.2891 96.526H19.9933C17.6991 96.526 15.8331 98.2606 15.8331 100.393V101.514H10.9336V84.1701H15.8331V85.2901C15.8331 87.4227 17.6991 89.1572 19.9933 89.1572H32.2891C34.5833 89.1572 36.4492 87.4227 36.4492 85.2901V80.471C36.4492 78.3384 34.5833 76.6038 32.2891 76.6038H19.9933C17.6991 76.6038 15.8331 78.3384 15.8331 80.471V81.592H10.9336V69.233H19.5312C20.2967 69.233 20.918 68.6555 20.918 67.9439C20.918 67.2324 20.2967 66.6549 19.5312 66.6549H8.4375C7.67758 66.6549 7.05078 66.0774 7.05078 65.3658V58.245C7.05078 57.5334 7.67758 56.9559 8.4375 56.9559H36.1719C36.9373 56.9559 37.5586 57.5334 37.5586 58.245V65.3658C37.5586 66.0774 36.9373 66.6549 36.1719 66.6549H30.625C29.8595 66.6549 29.2383 67.2324 29.2383 67.9439C29.2383 68.6555 29.8595 69.233 30.625 69.233H36.1719C38.4683 69.233 40.332 67.5005 40.332 65.3658V58.245C40.332 56.1155 38.4683 54.3778 36.1719 54.3778H23.1367V45.9226H73.6133V54.3773H55.9559C53.6617 54.3773 51.7958 56.1119 51.7958 58.2445V65.3673C51.7958 67.5 53.6617 69.2345 55.9559 69.2345H56.8867V122.726C56.8867 123.438 57.5074 124.015 58.2734 124.015H66.947V125.135C66.947 127.268 68.813 129.002 71.1072 129.002H88.9537C91.2479 129.002 93.1139 127.268 93.1139 125.135V120.315C93.1139 118.183 91.2479 116.448 88.9537 116.448H71.1072C68.813 116.448 66.947 118.183 66.947 120.315V121.437H59.6601V104.092H66.947V105.212C66.947 107.345 68.813 109.079 71.1072 109.079H88.9537C91.2479 109.079 93.1139 107.345 93.1139 105.212V100.393C93.1139 98.2606 91.2479 96.526 88.9537 96.526H71.1072C68.813 96.526 66.947 98.2606 66.947 100.393V101.514H59.6601V84.1701H66.947V85.2901C66.947 87.4227 68.813 89.1572 71.1072 89.1572H88.9537C91.2479 89.1572 93.1139 87.4227 93.1139 85.2901V80.471C93.1139 78.3384 91.2479 76.6038 88.9537 76.6038H71.1072C68.813 76.6038 66.947 78.3384 66.947 80.471V81.592H59.6601V69.2345H94.0446C96.3388 69.2345 98.2048 67.5 98.2048 65.3673V58.2445C98.2048 56.1119 96.3388 54.3773 94.0446 54.3773H76.3867V45.9226H126.863V54.3773H113.828C111.534 54.3773 109.668 56.1119 109.668 58.2445V65.3673C109.668 67.4128 111.386 69.0881 113.551 69.2216V122.725V122.726C113.551 122.726 113.551 122.726 113.551 122.726C113.551 123.439 114.171 124.016 114.938 124.016H122.61C123.377 124.016 123.997 123.439 123.997 122.726C123.997 122.014 123.377 121.437 122.61 121.437H116.324V104.093H121.224V105.213C121.224 107.345 123.09 109.08 125.384 109.08H137.68C139.974 109.08 141.84 107.345 141.84 105.213V100.394C141.84 98.2611 139.974 96.5266 137.68 96.5266H125.384C123.09 96.5266 121.224 98.2611 121.224 100.394V101.515H116.324V84.1706H121.222V85.2901C121.228 87.4196 123.091 89.1572 125.382 89.1572H126.586C127.351 89.1572 127.973 88.5797 127.973 87.8682C127.973 87.1566 127.351 86.5791 126.586 86.5791H125.382C124.622 86.5791 124.001 86.0016 123.996 85.2901C123.996 84.1454 123.996 83.0466 123.996 80.469C124.001 79.7626 124.622 79.1851 125.382 79.1799H137.68C138.44 79.1851 139.066 79.7626 139.066 80.469V85.2901C139.066 86.0016 138.44 86.5791 137.68 86.5791C136.914 86.5791 136.293 87.1566 136.293 87.8682C136.293 88.5797 136.914 89.1572 137.68 89.1572C139.971 89.1572 141.84 87.4196 141.84 85.2901V80.469C141.84 78.3394 139.971 76.6069 137.68 76.6018H125.382C123.091 76.6069 121.228 78.3394 121.222 80.469V81.5925H116.324V69.235H141.562C143.857 69.235 145.723 67.5005 145.723 65.3679V58.245C145.723 56.1119 143.857 54.3773 141.562 54.3773ZM18.6066 100.393C18.6066 99.6827 19.2289 99.1042 19.9933 99.1042H32.2891C33.0534 99.1042 33.6758 99.6827 33.6758 100.393V105.212C33.6758 105.923 33.0534 106.501 32.2891 106.501H19.9933C19.2289 106.501 18.6066 105.923 18.6066 105.212V100.393ZM18.6066 80.4705C18.6066 79.76 19.2289 79.1814 19.9933 79.1814H32.2891C33.0534 79.1814 33.6758 79.76 33.6758 80.4705V85.2895C33.6758 86.0001 33.0534 86.5786 32.2891 86.5786H19.9933C19.2289 86.5786 18.6066 86.0001 18.6066 85.2895V80.4705ZM69.7199 120.315C69.7199 119.605 70.3423 119.026 71.1067 119.026H88.9532C89.7181 119.026 90.3399 119.605 90.3399 120.315V125.135C90.3399 125.846 89.7181 126.424 88.9532 126.424H71.1067C70.3423 126.424 69.7199 125.846 69.7199 125.135V120.315ZM69.7199 100.393C69.7199 99.6827 70.3423 99.1042 71.1067 99.1042H88.9532C89.7181 99.1042 90.3399 99.6827 90.3399 100.393V105.212C90.3399 105.923 89.7181 106.501 88.9532 106.501H71.1067C70.3423 106.501 69.7199 105.923 69.7199 105.212V100.393ZM69.7199 80.4705C69.7199 79.76 70.3423 79.1814 71.1067 79.1814H88.9532C89.7181 79.1814 90.3399 79.76 90.3399 80.4705V85.2895C90.3399 86.0001 89.7181 86.5786 88.9532 86.5786H71.1067C70.3423 86.5786 69.7199 86.0001 69.7199 85.2895V80.4705ZM95.4308 58.2445V65.3673C95.4308 66.0779 94.809 66.6564 94.0441 66.6564H55.9559C55.1916 66.6564 54.5692 66.0779 54.5692 65.3673V58.2445C54.5692 57.534 55.1916 56.9554 55.9559 56.9554H94.0446C94.809 56.9554 95.4308 57.534 95.4308 58.2445ZM123.997 100.393C123.997 99.6827 124.619 99.1042 125.384 99.1042H137.68C138.445 99.1042 139.066 99.6827 139.066 100.393V105.212C139.066 105.923 138.445 106.501 137.68 106.501H125.384C124.619 106.501 123.997 105.923 123.997 105.212V100.393ZM142.949 65.3673C142.949 66.0779 142.327 66.6564 141.562 66.6564H113.828C113.063 66.6564 112.441 66.0779 112.441 65.3673V58.2445C112.441 57.534 113.063 56.9554 113.828 56.9554H141.562C142.327 56.9554 142.949 57.534 142.949 58.2445V65.3673Z" fill="black"/>
<path d="M132.133 89.1567C132.899 89.1567 133.52 88.5796 133.52 87.8677C133.52 87.1557 132.899 86.5786 132.133 86.5786C131.367 86.5786 130.746 87.1557 130.746 87.8677C130.746 88.5796 131.367 89.1567 132.133 89.1567Z" fill="black"/>
<path d="M21.75 85.0673C20.984 85.0673 20.3633 84.4904 20.3633 83.7783V81.9824C20.3633 81.2703 20.984 80.6933 21.75 80.6933C22.516 80.6933 23.1367 81.2703 23.1367 81.9824V83.7783C23.1367 84.4904 22.516 85.0673 21.75 85.0673Z" fill="#F9E5AF"/>
<path d="M21.75 105.059C20.984 105.059 20.3633 104.482 20.3633 103.77V101.836C20.3633 101.124 20.984 100.547 21.75 100.547C22.516 100.547 23.1367 101.124 23.1367 101.836V103.77C23.1367 104.482 22.516 105.059 21.75 105.059Z" fill="#F9E5AF"/>
<path d="M127.695 85.0673C126.929 85.0673 126.309 84.4904 126.309 83.7783V81.9824C126.309 81.2703 126.929 80.6933 127.695 80.6933C128.461 80.6933 129.082 81.2703 129.082 81.9824V83.7783C129.082 84.4904 128.461 85.0673 127.695 85.0673Z" fill="#F9E5AF"/>
<path d="M127.695 105.059C126.929 105.059 126.309 104.482 126.309 103.77V101.836C126.309 101.124 126.929 100.547 127.695 100.547C128.461 100.547 129.082 101.124 129.082 101.836V103.77C129.082 104.482 128.461 105.059 127.695 105.059Z" fill="#F9E5AF"/>
</g>
<defs>
<filter id="filter0_d" x="0" y="0" width="150" height="140" filterUnits="userSpaceOnUse" color-interpolation-filters="sRGB">
<feFlood flood-opacity="0" result="BackgroundImageFix"/>
<feColorMatrix in="SourceAlpha" type="matrix" values="0 0 0 0 0 0 0 0 0 0 0 0 0 0 0 0 0 0 127 0"/>
<feOffset dy="4"/>
<feGaussianBlur stdDeviation="2"/>
<feColorMatrix type="matrix" values="0 0 0 0 0 0 0 0 0 0 0 0 0 0 0 0 0 0 0.25 0"/>
<feBlend mode="normal" in2="BackgroundImageFix" result="effect1_dropShadow"/>
<feBlend mode="normal" in="SourceGraphic" in2="effect1_dropShadow" result="shape"/>
</filter>
</defs>
</svg>
