<svg width="133" height="124" viewBox="0 0 133 124" fill="none" xmlns="http://www.w3.org/2000/svg">
<path d="M117.414 29.5469C110.244 29.5469 104.426 34.9724 104.426 41.6562V109.469H130.402V41.6562C130.402 34.9696 124.586 29.5469 117.414 29.5469Z" fill="#ECECF1"/>
<path d="M15.5859 29.5469C8.416 29.5469 2.59766 34.9724 2.59766 41.6562V109.469H28.5742C28.5742 106.935 28.5742 44.9674 28.5742 41.6562C28.5742 34.9696 22.7579 29.5469 15.5859 29.5469Z" fill="#ECECF1"/>
<path d="M67.5391 77.9844H104.426C104.426 64.6924 104.426 51.7004 104.426 48.9219H34.8086C34.8086 48.9219 58.5619 70.0139 67.5391 77.9844Z" fill="#7FE881"/>
<path d="M28.5742 63.4531V109.469C28.5742 102.782 22.7579 97.3594 15.5859 97.3594C8.41397 97.3594 2.59766 102.782 2.59766 109.469C2.59766 116.511 9.15572 121.578 16.3267 121.578H28.5742L61.3047 92.5156L28.5742 63.4531Z" fill="#76E2F8"/>
<path d="M120.874 97.7756C112.209 95.6887 104.426 101.731 104.426 109.469C104.426 107.574 104.426 100.849 104.426 92.5156H82.0859L50.9141 121.578H117.414C124.589 121.578 130.402 116.158 130.402 109.469C130.402 103.63 126.166 99.05 120.874 97.7756Z" fill="#76E2F8"/>
<path d="M104.426 77.9844V92.5156H82.0859L50.9141 121.578H28.5742L61.3047 92.5156L28.5742 63.4531V48.9219H34.8086C34.8086 48.9219 58.5619 70.0139 67.5391 77.9844H104.426Z" fill="#FED2A4"/>
<path d="M66.5 2.42188C79.4132 2.42188 89.8789 12.1794 89.8789 24.2188C89.8789 30.1495 84.2087 40.2249 78.4523 48.9219C72.5213 57.8875 66.5 65.3906 66.5 65.3906C66.5 65.3906 60.4787 57.8875 54.5477 48.9219C48.7913 40.2249 43.1211 30.1495 43.1211 24.2188C43.1211 12.1794 53.5868 2.42188 66.5 2.42188Z" fill="#FF637B"/>
<path d="M66.5 14.5312C72.2301 14.5312 76.8906 18.8764 76.8906 24.2188C76.8906 29.5611 72.2301 33.9062 66.5 33.9062C60.7699 33.9062 56.1094 29.5611 56.1094 24.2188C56.1094 18.8764 60.7699 14.5312 66.5 14.5312Z" fill="#ECECF1"/>
<path d="M117.414 27.125C108.804 27.125 101.828 33.6272 101.828 41.6562V46.5H83.0438C89.3036 36.5192 92.4766 29.0341 92.4766 24.2188C92.4766 10.8644 80.8236 0 66.5 0C52.1764 0 40.5234 10.8644 40.5234 24.2188C40.5234 29.0341 43.6964 36.5202 49.9562 46.5C47.8476 46.5 32.9953 46.5 31.1719 46.5V41.6562C31.1719 33.6432 24.1805 27.125 15.5859 27.125C6.97613 27.125 0 33.6272 0 41.6562V55.2188C0 56.5565 1.16286 57.6406 2.59766 57.6406C4.03246 57.6406 5.19531 56.5565 5.19531 55.2188V41.6562C5.19531 36.3054 9.84573 31.9688 15.5859 31.9688C21.315 31.9688 25.9766 36.3149 25.9766 41.6562V98.6469C23.2176 96.3414 19.5737 94.9375 15.5859 94.9375C11.5971 94.9375 7.95532 96.3433 5.19531 98.6498V74.5938C5.19531 73.256 4.03246 72.1719 2.59766 72.1719C1.16286 72.1719 0 73.256 0 74.5938V109.469C0 117.778 7.69353 124 16.3267 124H117.414C126.009 124 133 117.482 133 109.469V41.6562C133 33.6432 126.009 27.125 117.414 27.125ZM107.023 41.6562C107.023 36.3054 111.674 31.9688 117.414 31.9688C123.143 31.9688 127.805 36.3149 127.805 41.6562V98.5807C126.019 97.0983 123.869 95.9952 121.524 95.4313C116.317 94.1759 110.961 95.3575 107.023 98.6356C107.023 96.5647 107.023 44.5634 107.023 41.6562ZM101.828 75.5625H68.5781C59.8729 67.8343 43.2469 53.0703 41.3037 51.3438H53.1048C58.776 59.79 64.362 66.769 64.4198 66.8419C64.911 67.453 65.6811 67.8125 66.5 67.8125C67.3189 67.8125 68.089 67.453 68.5802 66.8419C68.638 66.769 74.225 59.79 79.8952 51.3438H101.828V75.5625ZM66.5 4.84375C77.9591 4.84375 87.2812 13.5351 87.2812 24.2188C87.2812 33.2109 72.0667 54.005 66.5 61.2706C60.846 53.8896 45.7188 33.1286 45.7188 24.2188C45.7188 13.5351 55.0409 4.84375 66.5 4.84375ZM5.19531 109.469C5.19531 104.127 9.85689 99.7812 15.5859 99.7812C21.315 99.7812 25.9766 104.127 25.9766 109.469C25.9766 110.806 27.1394 111.891 28.5742 111.891C30.009 111.891 31.1719 110.806 31.1719 109.469V69.1039L57.5381 92.5156L27.5352 119.156H16.3267C10.5012 119.156 5.19531 115.097 5.19531 109.469ZM63.0956 94.2696C63.6111 93.8117 63.9023 93.1779 63.9023 92.5156C63.9023 91.8534 63.6111 91.2186 63.0956 90.7617L31.1719 62.4153V51.3438H33.7695C33.9471 51.5017 64.5102 78.64 65.7481 79.7383C66.2311 80.1669 66.8724 80.4062 67.5391 80.4062H101.828V90.0938H82.0859C81.3969 90.0938 80.7364 90.3492 80.2493 90.8033L49.8375 119.156H35.0684L63.0956 94.2696ZM117.414 119.156H57.186L83.1625 94.9375H101.828V109.469C101.828 110.806 102.991 111.891 104.426 111.891C105.861 111.891 107.023 110.806 107.023 109.469C107.023 103.205 113.315 98.4568 120.225 100.121C124.443 101.137 127.805 104.769 127.805 109.469C127.805 114.81 123.143 119.156 117.414 119.156Z" fill="black"/>
<path d="M66.5 36.3281C73.6618 36.3281 79.4883 30.8959 79.4883 24.2188C79.4883 17.5416 73.6618 12.1094 66.5 12.1094C59.3382 12.1094 53.5117 17.5416 53.5117 24.2188C53.5117 30.8959 59.3382 36.3281 66.5 36.3281ZM66.5 16.9531C70.7973 16.9531 74.293 20.2122 74.293 24.2188C74.293 28.2253 70.7973 31.4844 66.5 31.4844C62.2027 31.4844 58.707 28.2253 58.707 24.2188C58.707 20.2122 62.2027 16.9531 66.5 16.9531Z" fill="black"/>
<path d="M2.59766 67.3281C4.03144 67.3281 5.19531 66.243 5.19531 64.9062C5.19531 63.5695 4.03144 62.4844 2.59766 62.4844C1.16387 62.4844 0 63.5695 0 64.9062C0 66.243 1.16387 67.3281 2.59766 67.3281Z" fill="black"/>
</svg>
