<svg width="118" height="118" viewBox="0 0 118 118" fill="none" xmlns="http://www.w3.org/2000/svg">
<path d="M104.107 54.681C100.092 52.6736 92.5639 52.6504 92.2454 52.6504C91.2908 52.6504 90.5168 53.4243 90.5168 54.3789C90.5168 55.3335 91.2908 56.1074 92.2454 56.1074C94.188 56.1076 99.8282 56.4068 102.561 57.7732C102.81 57.8975 103.073 57.956 103.333 57.956C103.967 57.956 104.578 57.6057 104.88 57.0002C105.307 56.1463 104.961 55.1081 104.107 54.681Z" fill="#134E6F"/>
<path d="M112.725 79.2907L105.586 77.2511C105.278 77.163 105.063 76.8777 105.063 76.5571V74.1743C105.644 73.7719 106.198 73.3216 106.716 72.8189C109.225 70.3833 110.607 67.1164 110.607 63.6198V60.3317L111.298 58.9514C112.055 57.436 112.456 55.7396 112.456 54.0456V45.138C112.456 44.1834 111.682 43.4095 110.727 43.4095H94.0935C88.0451 43.4095 83.1241 48.3305 83.1241 54.3789V54.4819C83.1241 55.8905 83.4571 57.3012 84.087 58.561L84.9722 60.3314V63.1547C84.9722 67.629 87.1771 71.6435 90.5168 74.0593L90.5173 76.5567C90.5173 76.9418 90.5173 77.1013 89.09 77.5092L85.6067 78.5043L75.5304 74.8403C75.5666 74.3649 75.4061 73.8814 75.0593 73.517L71.8394 70.1342V64.4554C72.1798 64.1749 72.5154 63.8869 72.8406 63.5822C76.9026 59.7748 79.2322 54.3994 79.2322 48.8343V44.2991C80.4587 41.63 81.0803 38.8056 81.0803 35.8969V17.4156C81.0803 16.461 80.3064 15.6871 79.3518 15.6871H53.4773C44.3715 15.6871 36.9635 23.0953 36.9635 32.2009V35.8974C36.9635 38.8061 37.5851 41.6305 38.8116 44.2996V48.2016C38.8116 54.663 41.6847 60.4842 46.2044 64.322V70.1344L42.9845 73.5172C42.6376 73.8816 42.4772 74.3651 42.5134 74.8406L31.8784 78.7076C31.1078 78.9879 30.3917 79.3674 29.7415 79.8272L28.0716 78.9922C33.0428 76.8284 34.6176 73.785 34.6932 73.6338C34.9365 73.1473 34.9365 72.5744 34.6932 72.0879C33.447 69.5956 33.2961 65.0274 33.1748 61.357C33.1345 60.1351 33.0962 58.9806 33.0232 57.9528C32.4339 49.6619 26.131 43.4095 18.3619 43.4095C10.5928 43.4095 4.28971 49.6616 3.70064 57.9528C3.62758 58.9809 3.58932 60.1353 3.54899 61.3575C3.42776 65.0277 3.27657 69.5953 2.03066 72.0876C1.78729 72.5741 1.78729 73.1471 2.03066 73.6336C2.10625 73.7848 3.67782 76.8219 8.65894 78.9883L4.0203 81.3075C1.54045 82.5484 0 85.0409 0 87.8132V100.583C0 101.538 0.773914 102.312 1.72852 102.312C2.68312 102.312 3.45703 101.538 3.45703 100.583V87.8132C3.45703 86.3585 4.26529 85.0506 5.56628 84.4L11.3425 81.512L13.3517 83.4214C14.7567 84.7565 16.5589 85.4237 18.3619 85.4237C20.1644 85.4237 21.9676 84.756 23.3721 83.4214L25.3811 81.5122L27.2645 82.4539C26.3776 83.8729 25.8743 85.5369 25.8743 87.2799V100.584C25.8743 101.538 26.6482 102.312 27.6028 102.312C28.5574 102.312 29.3313 101.538 29.3313 100.584V87.2799C29.3313 84.907 30.8296 82.7678 33.0598 81.9568L44.2726 77.8795L48.9403 84.8814C49.537 85.7766 50.4932 86.3507 51.5637 86.4567C51.6831 86.4684 51.8018 86.4742 51.9202 86.4742C52.8647 86.4742 53.7693 86.1024 54.4455 85.4265L57.2931 82.5788V100.584C57.2931 101.539 58.0671 102.312 59.0217 102.312C59.9763 102.312 60.7502 101.539 60.7502 100.584V82.5788L63.5979 85.4265C64.2738 86.1027 65.1784 86.4744 66.1231 86.4744C66.2413 86.4744 66.3603 86.4687 66.4794 86.4569C67.5502 86.3509 68.5064 85.7768 69.1031 84.8816L73.771 77.88L84.9835 81.9572C87.2135 82.7682 88.712 84.9075 88.712 87.2804V100.584C88.712 101.539 89.4859 102.313 90.4405 102.313C91.3952 102.313 92.1691 101.539 92.1691 100.584V87.2804C92.1691 84.877 91.2142 82.6231 89.6125 80.9561L90.0395 80.8342C90.4703 80.7111 91.058 80.5426 91.648 80.2534L96.0612 84.6666V100.584C96.0612 101.539 96.8351 102.313 97.7897 102.313C98.7443 102.313 99.5183 101.539 99.5183 100.584V84.6666L103.901 80.284C104.134 80.4025 104.379 80.5025 104.636 80.576L111.775 82.6157C113.405 83.0812 114.543 84.5901 114.543 86.285V100.584C114.543 101.539 115.317 102.313 116.271 102.313C117.226 102.313 118 101.539 118 100.584V86.285C118 83.0543 115.831 80.1782 112.725 79.2907ZM11.089 76.2377C7.85576 75.0743 6.23395 73.5232 5.54162 72.6763C6.01362 71.4423 6.31968 70.0291 6.52687 68.5373C7.48009 70.8228 9.07655 72.774 11.089 74.166V76.2377ZM20.9911 80.9157C19.5168 82.3165 17.2073 82.3163 15.7334 80.9155L14.1259 79.388C14.3972 78.8798 14.5463 78.3036 14.5463 77.7V75.8576C15.7521 76.2345 17.0339 76.4377 18.3624 76.4377C19.6892 76.4377 20.9704 76.2335 22.1782 75.8588L22.178 77.6998C22.178 78.3036 22.3269 78.88 22.5984 79.3884L20.9911 80.9157ZM18.3628 72.9807C13.2013 72.9807 9.00234 68.7816 9.00234 63.6202C9.00234 62.6656 8.22843 61.8917 7.27382 61.8917C7.17703 61.8917 7.08254 61.9016 6.99012 61.917C6.99519 61.7684 7.00003 61.6195 7.0051 61.4722C7.04359 60.2837 7.08069 59.1611 7.14914 58.1982C7.36993 55.0924 8.611 52.2304 10.6437 50.1392C12.6947 48.029 15.4359 46.867 18.3624 46.867C21.2889 46.867 24.0298 48.029 26.081 50.1392C28.1137 52.2304 29.3548 55.0924 29.5756 58.1982C29.6438 59.1609 29.6811 60.2833 29.7203 61.4715C29.7238 61.5736 29.7272 61.6771 29.7307 61.7799C27.8501 58.8825 24.9457 56.7472 21.193 55.5414C17.726 54.4275 14.7442 54.4964 14.6184 54.4996C14.1658 54.5123 13.7362 54.7018 13.422 55.0276L10.3033 58.262C9.64074 58.9493 9.66056 60.0436 10.3478 60.7062C11.0351 61.3688 12.1293 61.3487 12.7919 60.6617L15.387 57.9705C17.6219 58.0797 24.8118 58.9159 27.6081 65.0733C26.9045 69.6108 23.0045 72.9807 18.3628 72.9807ZM25.6348 76.2434L25.635 74.1819C27.6459 72.7975 29.2446 70.85 30.1986 68.5472C30.4057 70.0355 30.7116 71.4455 31.1827 72.6767C30.4942 73.5156 28.8648 75.0805 25.6348 76.2434ZM42.2687 48.2014V43.9128C42.2687 43.6526 42.2099 43.3957 42.0967 43.1613C40.9845 40.858 40.4205 38.4141 40.4205 35.8974V32.2011C40.4205 25.0015 46.2779 19.1443 53.4773 19.1443H77.6233V35.8976C77.6233 38.4143 77.0593 40.8582 75.9471 43.1615C75.8339 43.3959 75.7751 43.6529 75.7751 43.9131V48.8347C75.7751 53.5158 73.8933 57.8576 70.4764 61.0604C70.0498 61.46 69.6071 61.8348 69.1494 62.1839C69.1392 62.1908 69.1296 62.1984 69.1197 62.2056C65.9187 64.6359 61.9979 65.817 57.9034 65.5518C49.1362 64.9841 42.2687 57.363 42.2687 48.2014ZM52.0011 82.9817C51.9891 82.9936 51.9613 83.022 51.9048 83.016C51.8486 83.0105 51.8264 82.9775 51.817 82.9632L46.4413 74.8996L48.1712 73.0819L56.3263 78.6562L52.0011 82.9817ZM59.0219 76.3112L49.6614 69.9129V66.6864C52.0834 67.9957 54.7953 68.8145 57.6796 69.0012C58.1353 69.0307 58.5882 69.0452 59.0396 69.0452C62.3448 69.0452 65.5257 68.2552 68.3824 66.7555V69.9129L59.0219 76.3112ZM66.2268 82.9637C66.2174 82.978 66.1952 83.0109 66.139 83.0165C66.0825 83.0236 66.0549 82.9939 66.0427 82.9821L61.7175 78.6569L69.8726 73.0823L71.6027 74.9L66.2268 82.9637ZM97.7897 81.5053L93.8672 77.5829C93.9356 77.272 93.9743 76.9316 93.9741 76.5562L93.9739 75.8268C95.0624 76.184 96.2096 76.396 97.3968 76.4315C97.53 76.4357 97.6621 76.4375 97.7948 76.4375C99.1066 76.4375 100.387 76.2393 101.606 75.8611V76.5571C101.606 76.9019 101.649 77.2398 101.731 77.5645L97.7897 81.5053ZM104.308 70.3381C102.476 72.116 100.056 73.0549 97.5007 72.9761C92.4986 72.8261 88.4292 68.4202 88.4292 63.1551V59.9237C88.4292 59.6552 88.3668 59.3906 88.2467 59.1507L87.179 57.0152C86.7878 56.2328 86.5811 55.357 86.5811 54.4821V54.3791C86.5811 50.2367 89.9513 46.8667 94.0935 46.8667H108.999V54.0458C108.999 55.206 108.724 56.3678 108.206 57.4056L107.333 59.1507C107.213 59.3909 107.15 59.6552 107.15 59.9237V63.62C107.15 66.1736 106.141 68.5594 104.308 70.3381Z" fill="#134E6F"/>
<path d="M108.879 87.7657C107.924 87.7657 107.15 88.5396 107.15 89.4942V100.583C107.15 101.538 107.924 102.312 108.879 102.312C109.833 102.312 110.607 101.538 110.607 100.583V89.4942C110.607 88.5399 109.833 87.7657 108.879 87.7657Z" fill="#134E6F"/>
<path d="M9.12128 90.0506C8.16668 90.0506 7.39276 90.8245 7.39276 91.7791V100.583C7.39276 101.538 8.16668 102.312 9.12128 102.312C10.0759 102.312 10.8498 101.538 10.8498 100.583V91.7791C10.8498 90.8247 10.0759 90.0506 9.12128 90.0506Z" fill="#134E6F"/>
<path d="M73.1812 36.5235C66.6437 29.9861 52.9656 31.2359 47.3878 32.0766C45.631 32.3415 44.356 33.8282 44.356 35.6118V39.5938C44.356 40.5484 45.1299 41.3224 46.0845 41.3224C47.0391 41.3224 47.8131 40.5484 47.8131 39.5938V35.6116C47.8131 35.5528 47.8518 35.5026 47.9034 35.4947C50.1313 35.1589 54.5524 34.6408 59.133 34.9462C64.5232 35.3051 68.4273 36.6581 70.7369 38.9679C71.4119 39.6429 72.5064 39.6429 73.1812 38.9679C73.8563 38.2928 73.8563 37.1984 73.1812 36.5235Z" fill="#134E6F"/>
<path d="M38.692 91.4622C37.7374 91.4622 36.9635 92.2361 36.9635 93.1907V100.583C36.9635 101.538 37.7374 102.312 38.692 102.312C39.6466 102.312 40.4205 101.538 40.4205 100.583V93.1907C40.4205 92.2363 39.6466 91.4622 38.692 91.4622Z" fill="#134E6F"/>
<path d="M79.3517 91.4622C78.3971 91.4622 77.6232 92.2361 77.6232 93.1907V100.583C77.6232 101.538 78.3971 102.312 79.3517 102.312C80.3063 102.312 81.0803 101.538 81.0803 100.583V93.1907C81.0803 92.2363 80.3063 91.4622 79.3517 91.4622Z" fill="#134E6F"/>
</svg>
