<svg width="70" height="70" viewBox="0 0 70 70" fill="none" xmlns="http://www.w3.org/2000/svg">
<path d="M46.6667 11.6667C46.6667 8.45833 49.2917 5.83333 52.5 5.83333C55.7084 5.83333 58.3334 8.45833 58.3334 11.6667C58.3334 14.875 55.7084 17.5 52.5 17.5C49.2917 17.5 46.6667 14.875 46.6667 11.6667ZM60.6084 22.1083C58.1292 21.0292 55.3875 20.4167 52.5 20.4167C50.5459 20.4167 48.6792 20.7083 46.9 21.2333C48.5917 22.8375 49.5834 25.0833 49.5834 27.5042V29.1667H64.1667V27.5042C64.1667 25.1417 62.7667 23.0417 60.6084 22.1083ZM17.5 17.5C20.7084 17.5 23.3334 14.875 23.3334 11.6667C23.3334 8.45833 20.7084 5.83333 17.5 5.83333C14.2917 5.83333 11.6667 8.45833 11.6667 11.6667C11.6667 14.875 14.2917 17.5 17.5 17.5ZM23.1 21.2333C21.3209 20.7083 19.4542 20.4167 17.5 20.4167C14.6125 20.4167 11.8709 21.0292 9.39171 22.1083C7.23337 23.0417 5.83337 25.1417 5.83337 27.5042V29.1667H20.4167V27.5042C20.4167 25.0833 21.4084 22.8375 23.1 21.2333ZM29.1667 11.6667C29.1667 8.45833 31.7917 5.83333 35 5.83333C38.2084 5.83333 40.8334 8.45833 40.8334 11.6667C40.8334 14.875 38.2084 17.5 35 17.5C31.7917 17.5 29.1667 14.875 29.1667 11.6667ZM46.6667 29.1667H23.3334V27.5042C23.3334 25.1417 24.7334 23.0417 26.8917 22.1083C29.3709 21.0292 32.1125 20.4167 35 20.4167C37.8875 20.4167 40.6292 21.0292 43.1084 22.1083C45.2667 23.0417 46.6667 25.1417 46.6667 27.5042V29.1667ZM43.75 46.6667C43.75 43.4583 46.375 40.8333 49.5834 40.8333C52.7917 40.8333 55.4167 43.4583 55.4167 46.6667C55.4167 49.875 52.7917 52.5 49.5834 52.5C46.375 52.5 43.75 49.875 43.75 46.6667ZM61.25 64.1667H37.9167V62.5042C37.9167 60.1417 39.3167 58.0417 41.475 57.1083C43.9542 56.0292 46.6959 55.4167 49.5834 55.4167C52.4709 55.4167 55.2125 56.0292 57.6917 57.1083C59.85 58.0417 61.25 60.1417 61.25 62.5042V64.1667ZM14.5834 46.6667C14.5834 43.4583 17.2084 40.8333 20.4167 40.8333C23.625 40.8333 26.25 43.4583 26.25 46.6667C26.25 49.875 23.625 52.5 20.4167 52.5C17.2084 52.5 14.5834 49.875 14.5834 46.6667ZM32.0834 64.1667H8.75004V62.5042C8.75004 60.1417 10.15 58.0417 12.3084 57.1083C14.7875 56.0292 17.5292 55.4167 20.4167 55.4167C23.3042 55.4167 26.0459 56.0292 28.525 57.1083C30.6834 58.0417 32.0834 60.1417 32.0834 62.5042V64.1667ZM40.2209 37.9167H37.1875V34.2708C37.1875 33.075 36.1959 32.0833 35 32.0833C33.8042 32.0833 32.8125 33.075 32.8125 34.2708V37.9167H29.7792C28.4667 37.9167 27.825 39.4917 28.7584 40.3958L33.9792 45.6167C34.5625 46.2 35.4667 46.2 36.05 45.6167L41.2709 40.3958C42.175 39.4917 41.5334 37.9167 40.2209 37.9167Z" fill="white"/>
</svg>
