<svg width="70" height="70" viewBox="0 0 70 70" fill="none" xmlns="http://www.w3.org/2000/svg">
<path d="M16.0416 61.25C18.4625 61.25 20.4166 59.2958 20.4166 56.875V52.5H49.5833V56.875C49.5833 59.2958 51.5375 61.25 53.9583 61.25C56.3792 61.25 58.3333 59.2958 58.3333 56.875V49.5833C58.3333 46.375 55.7083 43.75 52.5 43.75H17.5C14.2916 43.75 11.6666 46.375 11.6666 49.5833V56.875C11.6666 59.2958 13.6208 61.25 16.0416 61.25ZM58.3333 29.1667H61.25C62.8542 29.1667 64.1667 30.4792 64.1667 32.0833V35C64.1667 36.6042 62.8542 37.9167 61.25 37.9167H58.3333C56.7292 37.9167 55.4167 36.6042 55.4167 35V32.0833C55.4167 30.4792 56.7292 29.1667 58.3333 29.1667ZM8.74998 29.1667H11.6666C13.2708 29.1667 14.5833 30.4792 14.5833 32.0833V35C14.5833 36.6042 13.2708 37.9167 11.6666 37.9167H8.74998C7.14581 37.9167 5.83331 36.6042 5.83331 35V32.0833C5.83331 30.4792 7.14581 29.1667 8.74998 29.1667ZM49.5833 37.9167H20.4166V14.5833C20.4166 11.375 23.0416 8.75 26.25 8.75H43.75C46.9583 8.75 49.5833 11.375 49.5833 14.5833V37.9167Z" fill="white"/>
</svg>
