<svg width="118" height="118" viewBox="0 0 118 118" fill="none" xmlns="http://www.w3.org/2000/svg">
<g clip-path="url(#clip0)">
<path d="M108.09 95.6478H115.695C116.968 95.6478 118 94.6157 118 93.3431C118 92.0704 116.968 91.0384 115.695 91.0384H108.09C96.2818 91.0384 86.6749 81.4315 86.6749 69.6232C86.6749 65.9364 89.6745 62.9371 93.3613 62.9371C97.0483 62.9371 100.048 65.9364 100.048 69.6232C100.048 70.7449 100.856 71.7037 101.961 71.8943C103.068 72.0844 104.149 71.4518 104.524 70.3953C107.235 62.7735 105.291 54.1542 99.5743 48.4374C97.4961 46.3595 95.1101 44.6683 92.4816 43.4111C91.3346 42.8619 89.9577 43.3473 89.4081 44.4959C88.8589 45.6439 89.3447 47.02 90.4929 47.5694C92.6487 48.6006 94.6074 49.9891 96.315 51.6967C98.9405 54.3219 100.547 57.7306 100.995 61.3042C98.9833 59.4568 96.3018 58.3277 93.3615 58.3277C87.1331 58.3277 82.0658 63.3948 82.0658 69.6232C82.0656 83.9734 93.7402 95.6478 108.09 95.6478Z" fill="#FFA822"/>
<path d="M11.8296 91.0384H2.30501C1.03236 91.0384 0.000320435 92.0704 0.000320435 93.3431C0.000320435 94.6157 1.03236 95.6478 2.30501 95.6478H11.8296C22.5012 95.6478 32.731 92.3995 41.4135 86.2541C46.3902 82.7316 50.6451 78.4179 54.0418 73.496C54.6525 80.6636 57.6919 87.6611 63.1651 93.1343C63.6152 93.5841 64.205 93.8093 64.7948 93.8093C65.3845 93.8093 65.9743 93.5841 66.4244 93.1343C67.3244 92.2343 67.3244 90.7749 66.4244 89.8747C55.8987 79.349 55.8987 62.2226 66.4244 51.6969C68.132 49.9893 70.0912 48.6003 72.2479 47.569C73.3961 47.0195 73.8819 45.6436 73.3327 44.4952C72.7833 43.3472 71.4078 42.8623 70.2589 43.4106C67.63 44.6683 65.243 46.3597 63.1651 48.4376C61.1607 50.442 59.4845 52.652 58.1321 54.9988C51.5871 50.6443 47.7106 43.4477 47.7106 35.5348C47.7106 31.4362 51.0452 28.1015 55.1439 28.1015C59.2428 28.1015 62.5777 31.4362 62.5777 35.5348C62.5777 36.6565 63.3852 37.6153 64.4905 37.8059C65.5973 37.996 66.6782 37.3636 67.0538 36.3069C69.9649 28.1206 67.878 18.8639 61.7381 12.7239C56.5076 7.49345 49.5532 4.61282 42.1563 4.61282C34.7592 4.61282 27.8048 7.49345 22.5743 12.7239C18.7598 16.5384 15.9621 21.0987 14.3173 26.0759C11.4726 33.6245 6.79131 40.4772 0.762941 45.9048C-0.182902 46.7563 -0.259418 48.2138 0.592395 49.1597C1.04757 49.6649 1.67537 49.9223 2.30593 49.9223C2.85537 49.9223 3.40688 49.7268 3.8473 49.3304C7.20039 46.3115 10.1688 42.8865 12.6862 39.1633C13.2463 47.3634 16.7068 54.9961 22.5743 60.8636C23.0244 61.3134 23.6141 61.5386 24.2039 61.5386C24.7937 61.5386 25.3835 61.3134 25.8336 60.8636C26.7335 59.9636 26.7335 58.5042 25.8336 57.604C20.2747 52.0454 17.2133 44.6547 17.2133 36.7936C17.2133 28.9326 20.2747 21.5419 25.8336 15.9832C30.1933 11.6232 35.9901 9.22197 42.156 9.22197C48.3218 9.22197 54.1185 11.6232 58.4783 15.9832C61.4809 18.9855 63.2661 22.9249 63.6597 27.0275C61.4788 24.8445 58.4661 23.4919 55.1437 23.4919C48.5032 23.4919 43.101 28.8941 43.101 35.5346C43.101 40.4484 44.3927 45.2832 46.8373 49.5157C49.0992 53.4326 52.2999 56.7628 56.1169 59.1857C55.9298 59.6617 55.7572 60.1417 55.594 60.6243C48.838 78.8166 31.2424 91.0384 11.8296 91.0384Z" fill="#FFA822"/>
<path d="M117.325 106.105C116.425 105.205 114.967 105.205 114.066 106.105C110.498 109.672 104.694 109.672 101.126 106.104C95.7614 100.74 87.0328 100.74 81.6682 106.105C78.1008 109.672 72.2962 109.672 68.7288 106.104C66.1305 103.506 62.6753 102.075 59 102.075C55.325 102.075 51.8698 103.506 49.271 106.105C45.7036 109.672 39.899 109.672 36.3316 106.104C33.7328 103.506 30.2774 102.075 26.6026 102.075C22.9273 102.075 19.4723 103.506 16.8735 106.105C13.3063 109.672 7.50176 109.672 3.93411 106.105C3.0339 105.205 1.57457 105.205 0.674589 106.105C-0.225392 107.005 -0.225392 108.464 0.674589 109.364C6.03921 114.728 14.768 114.728 20.1328 109.364C21.8609 107.636 24.1584 106.684 26.6023 106.684C29.0462 106.684 31.3438 107.636 33.0718 109.364C38.4364 114.728 47.1652 114.728 52.5301 109.364C54.2581 107.636 56.5557 106.684 58.9995 106.684C61.4434 106.684 63.741 107.636 65.469 109.364C70.8337 114.728 79.5624 114.728 84.9273 109.364C88.4947 105.796 94.2991 105.797 97.8665 109.364C100.549 112.046 104.072 113.387 107.596 113.387C111.119 113.387 114.642 112.046 117.325 109.364C118.225 108.464 118.225 107.005 117.325 106.105Z" fill="#FFA822"/>
<path d="M81.3693 45.507C80.7632 45.507 80.1686 45.2606 79.7401 44.8317C79.3115 44.403 79.0646 43.8084 79.0646 43.2023C79.0646 42.5938 79.3112 42.0015 79.7401 41.5706C80.1686 41.1421 80.7632 40.8976 81.3693 40.8976C81.9754 40.8976 82.5701 41.1421 82.9987 41.5706C83.4297 42.0015 83.674 42.5961 83.674 43.2023C83.674 43.8084 83.4297 44.4007 82.9987 44.8317C82.5701 45.2606 81.9777 45.507 81.3693 45.507Z" fill="#FFA822"/>
<path d="M81.3693 45.507C80.7632 45.507 80.1686 45.2606 79.7401 44.8317C79.3115 44.403 79.0646 43.8084 79.0646 43.2023C79.0646 42.5938 79.3112 42.0015 79.7401 41.5706C80.1686 41.1421 80.7632 40.8976 81.3693 40.8976C81.9754 40.8976 82.5701 41.1421 82.9987 41.5706C83.4297 42.0015 83.674 42.5961 83.674 43.2023C83.674 43.8084 83.4297 44.4007 82.9987 44.8317C82.5701 45.2606 81.9777 45.507 81.3693 45.507Z" fill="#FFA822"/>
</g>
<defs>
<clipPath id="clip0">
<rect width="118" height="118" fill="white"/>
</clipPath>
</defs>
</svg>
